<mxfile host="app.diagrams.net" modified="2022-09-08T07:06:38.842Z" agent="5.0 (Macintosh; Intel Mac OS X 10_15_7) AppleWebKit/537.36 (KHTML, like Gecko) Chrome/105.0.0.0 Safari/537.36" etag="i_0HNN5w_cEqdZfAUTSS" version="20.3.0" type="github">
  <diagram id="B-_Hk6v979Pcsp_kEEk8" name="第 1 页">
    <mxGraphModel dx="1036" dy="798" grid="1" gridSize="10" guides="1" tooltips="1" connect="1" arrows="1" fold="1" page="1" pageScale="1" pageWidth="1169" pageHeight="1654" math="0" shadow="0">
      <root>
        <mxCell id="0" />
        <mxCell id="1" parent="0" />
        <mxCell id="7mORCnppdpepx7UK3nrS-5" value="&lt;table border=&quot;1&quot; width=&quot;100%&quot; height=&quot;100%&quot; cellpadding=&quot;4&quot; style=&quot;width:100%;height:100%;border-collapse:collapse;&quot;&gt;&lt;tbody&gt;&lt;tr style=&quot;background-color:#A7C942;color:#ffffff;border:1px solid #98bf21;&quot;&gt;&lt;th align=&quot;left&quot;&gt;KEY&lt;/th&gt;&lt;th align=&quot;left&quot;&gt;OFFSET&lt;/th&gt;&lt;th align=&quot;left&quot;&gt;&lt;br&gt;&lt;/th&gt;&lt;/tr&gt;&lt;tr style=&quot;border:1px solid #98bf21;&quot;&gt;&lt;td&gt;&lt;b&gt;Kiev&lt;/b&gt;&lt;/td&gt;&lt;td&gt;&lt;b&gt;110034&lt;/b&gt;&lt;/td&gt;&lt;td&gt;&lt;/td&gt;&lt;/tr&gt;&lt;tr style=&quot;background-color:#EAF2D3;border:1px solid #98bf21;&quot;&gt;&lt;td&gt;&lt;b&gt;John&lt;/b&gt;&lt;/td&gt;&lt;td&gt;&lt;b&gt;180012&lt;/b&gt;&lt;/td&gt;&lt;td&gt;&lt;/td&gt;&lt;/tr&gt;&lt;tr style=&quot;border:1px solid #98bf21;&quot;&gt;&lt;td&gt;&lt;b&gt;Tom&lt;/b&gt;&lt;/td&gt;&lt;td&gt;&lt;b&gt;250123&lt;/b&gt;&lt;/td&gt;&lt;td&gt;&lt;/td&gt;&lt;/tr&gt;&lt;tr style=&quot;background-color:#EAF2D3;border:1px solid #98bf21;&quot;&gt;&lt;td&gt;&lt;b&gt;Loen&lt;/b&gt;&lt;/td&gt;&lt;td&gt;&lt;b&gt;313454&lt;/b&gt;&lt;/td&gt;&lt;td&gt;&lt;br&gt;&lt;/td&gt;&lt;/tr&gt;&lt;/tbody&gt;&lt;/table&gt;" style="text;html=1;strokeColor=#c0c0c0;fillColor=#ffffff;overflow=fill;rounded=0;strokeWidth=2;" vertex="1" parent="1">
          <mxGeometry x="150" y="290" width="210" height="140" as="geometry" />
        </mxCell>
        <mxCell id="7mORCnppdpepx7UK3nrS-10" value="" style="shape=ext;double=1;rounded=1;whiteSpace=wrap;html=1;strokeWidth=2;" vertex="1" parent="1">
          <mxGeometry x="490" y="200" width="470" height="100" as="geometry" />
        </mxCell>
        <mxCell id="7mORCnppdpepx7UK3nrS-11" value="" style="shape=ext;double=1;rounded=1;whiteSpace=wrap;html=1;strokeWidth=2;" vertex="1" parent="1">
          <mxGeometry x="490" y="410" width="470" height="100" as="geometry" />
        </mxCell>
        <mxCell id="7mORCnppdpepx7UK3nrS-12" value="&lt;b&gt;&lt;font style=&quot;font-size: 37px;&quot;&gt;.......&lt;/font&gt;&lt;/b&gt;" style="text;html=1;align=center;verticalAlign=middle;resizable=0;points=[];autosize=1;strokeColor=none;fillColor=none;" vertex="1" parent="1">
          <mxGeometry x="675" y="320" width="100" height="60" as="geometry" />
        </mxCell>
        <mxCell id="7mORCnppdpepx7UK3nrS-14" value="foo02:99" style="rounded=0;whiteSpace=wrap;html=1;strokeWidth=2;fontSize=36;" vertex="1" parent="1">
          <mxGeometry x="512" y="210" width="145" height="40" as="geometry" />
        </mxCell>
        <mxCell id="7mORCnppdpepx7UK3nrS-15" value="foo03:99" style="rounded=0;whiteSpace=wrap;html=1;strokeWidth=2;fontSize=36;" vertex="1" parent="1">
          <mxGeometry x="657" y="210" width="145" height="40" as="geometry" />
        </mxCell>
        <mxCell id="7mORCnppdpepx7UK3nrS-16" value="foo04:99" style="rounded=0;whiteSpace=wrap;html=1;strokeWidth=2;fontSize=36;" vertex="1" parent="1">
          <mxGeometry x="802" y="210" width="145" height="40" as="geometry" />
        </mxCell>
      </root>
    </mxGraphModel>
  </diagram>
</mxfile>
